<?xml version="1.0" encoding="utf-8"?>
<!-- Generator: Adobe Illustrator 21.1.0, SVG Export Plug-In . SVG Version: 6.00 Build 0)  -->
<svg version="1.1" xmlns="http://www.w3.org/2000/svg" xmlns:xlink="http://www.w3.org/1999/xlink" x="0px" y="0px"
	 viewBox="0 0 1055.2 172" style="enable-background:new 0 0 1055.2 172;" xml:space="preserve">
<style type="text/css">
	.st0{fill:#FFFFFF;}
	.st1{fill:url(#SVGID_1_);}
	.st2{fill:url(#SVGID_2_);}
	.st3{fill:url(#SVGID_3_);}
	.st4{fill:url(#SVGID_4_);}
</style>
<g id="Background">
</g>
<g id="Logo">
	<path class="st0" d="M145.7,1.6l-49.4,160h46.3l4.9-19h48.3l5.1,19h46.3l-49.4-160H145.7z M162.5,97.9l9.3-36.9l9,36.9H162.5z"/>
	<path class="st0" d="M300.8,80.9L280.5,1.6h-50.7l42.8,158.5h56.5L371.9,1.6h-50.7L300.8,80.9z"/>
	<path class="st0" d="M402.8,1.6l-49.4,160h46.3l4.9-19h48.3l5.1,19h46.3l-49.4-160H402.8z M419.6,97.9l9.3-36.9l9,36.9H419.6z"/>
	<path class="st0" d="M34.7,1.6v41.3h13.9v53.3c0,2.6-0.5,5.1-1.5,7.3c-1,2.3-2.4,4.3-4.1,6c-1.7,1.8-3.7,3.1-6.1,4.2
		c-2.4,1-15.9,1.5-18.5,1.5H7.7v12C7.7,139.3,5,151,0,161.6h31.2c8.8,0,17.1-1.7,24.8-5.1c7.7-3.4,14.4-7.9,20.2-13.7
		c5.7-5.7,10.3-12.5,13.7-20.2c3.4-7.7,5.1-16,5.1-24.8V1.6H34.7z"/>
	<linearGradient id="SVGID_1_" gradientUnits="userSpaceOnUse" x1="602.0333" y1="-0.7758" x2="602.0333" y2="164.2432">
		<stop  offset="0" style="stop-color:#F48F41"/>
		<stop  offset="1" style="stop-color:#F05E2D"/>
	</linearGradient>
	<path class="st1" d="M678,154.6c-6.9-6.7-12.4-14.6-16.4-23.6c-1.4-3-2.5-6.2-3.4-9.4c-2.8,2.1-7.1,4.9-8.7,5.7
		c-2.3,1.1-4.7,2-7.2,2.5c-2.5,0.6-5,0.9-7.5,0.9c-2.5,0-4.7-0.4-6.6-1.3c-4.1-1.8-7.4-3.7-9.8-5.8c-2.4-2.1-4.4-4.1-6-5.8
		c7-4.9,12.9-10.9,17.6-18.2c4.7-7.3,7.7-15.5,9-24.6c1.3-8.7,0.9-17.1-1.2-25.2c-2.1-8.1-5.6-15.4-10.4-22.1
		c-4.8-6.6-10.7-12.2-17.9-16.7c-7.1-4.5-15-7.5-23.7-8.9c-2.5-0.3-5.7-0.4-9.6-0.4c-3.9,0-7.1,0-9.6,0h-46.1v160H567v-33.5
		c2.3,2.5,4.8,5.3,7.3,8.4c2.5,3.1,5.2,6.3,8.2,9.5c3,3.2,6.5,6.5,10.4,9.8c4,3.3,8.6,6.5,13.9,9.6c3.7,2.1,8,3.7,13,4.9
		c5,1.2,10.3,1.8,15.8,1.8c4.1,0,8.5-0.2,13.2-0.7c4.7-0.4,9.3-1.2,13.7-2.3s8.6-2.5,12.5-4.3c3.3-1.5,6.1-3.3,8.5-5.3
		C681.5,157.9,679.7,156.3,678,154.6z M588.4,76.1c-2.9,3-6.5,4.5-10.7,4.5H567V50h10.7c4.2,0,7.8,1.5,10.7,4.4
		c2.9,2.9,4.4,6.5,4.4,10.8C592.8,69.5,591.3,73.1,588.4,76.1z"/>
	<linearGradient id="SVGID_2_" gradientUnits="userSpaceOnUse" x1="995.2958" y1="-0.7758" x2="995.2958" y2="164.2432">
		<stop  offset="0" style="stop-color:#F48F41"/>
		<stop  offset="1" style="stop-color:#F05E2D"/>
	</linearGradient>
	<path class="st2" d="M1008.9,1.6v56.5h-27.1V1.6h-46.3v160h46.3v-57.2h27.1v57.2h46.3V1.6H1008.9z"/>
	<linearGradient id="SVGID_3_" gradientUnits="userSpaceOnUse" x1="856.7677" y1="-0.7758" x2="856.7677" y2="164.2432">
		<stop  offset="0" style="stop-color:#F48F41"/>
		<stop  offset="1" style="stop-color:#F05E2D"/>
	</linearGradient>
	<path class="st3" d="M918.5,93c-1.8-4.7-4.4-9-7.6-12.9c-3.2-3.9-7.1-7.3-11.5-10.3c-4.4-2.9-9.3-5.2-14.6-6.8l-25.1-8.2
		c-1.6-1-3-2.4-4.1-4.2c-1.1-1.8-0.8-3.5,0.8-5.1c2.1-1.6,4.4-2.6,7.2-3.1c2.7-0.4,5.5-0.5,8.5-0.2c5.1,0.7,10.8,1.9,17,3.5
		c6.2,1.6,11.6,3.4,16.3,5.3c0.6-10,1-17.5,1.1-22.4c0.1-4.9,0.2-8.6,0.2-11c0-2.4,0-4.2,0-5.4c0-1.2,0.1-3,0.4-5.5
		c-7.9-2.8-15.8-4.7-23.5-5.6c-7.7-1-15.5-1.3-23.3-1c-6,0-12.4,0.9-19,2.6c-6,1.5-11.2,3.6-15.6,6.5c-4.3,2.9-7.9,6.2-10.8,9.9
		s-5,7.8-6.3,12.2c-1.3,4.4-2,9-2,13.7c0,2.7-3.3,24,25,42.5c9.6,6.3,24.1,12.1,27.7,13.5c1.7,0.6,3.3,1.4,4.8,2.4
		c1.5,1,2.8,2.1,3.9,3.5c1,1.4,1.5,3,1.5,4.7c-0.3,2.5-1.3,4.2-2.9,5.2c-1.6,1-3.6,1.5-6,1.7c-3.8,0-15.8-2.8-19.1-4
		c-8.1-2.9-27.5-11.5-35.1-14.8v1.8c0,10.3-2.1,20.2-6.1,29.4c-2.3,5.1-5,9.8-8.2,14.2c30.4,15.4,54.6,18.4,71.5,17.5
		c21.8-1.1,34.3-8.8,43.2-17.2c4.7-4.5,8.1-10.1,10.7-16.3c2.6-6.3,3.8-13.3,3.6-21.1C921.3,102.7,920.3,97.7,918.5,93z"/>
	<linearGradient id="SVGID_4_" gradientUnits="userSpaceOnUse" x1="731.0511" y1="-0.7758" x2="731.0511" y2="164.2432">
		<stop  offset="0" style="stop-color:#F48F41"/>
		<stop  offset="1" style="stop-color:#F05E2D"/>
	</linearGradient>
	<path class="st4" d="M745.3,99.4c0,3.7-1.4,6.9-4.3,9.6c-2.9,2.7-6.2,4.1-10,4.1c-3.7,0-6.9-1.4-9.8-4.1c-2.9-2.7-4.3-5.9-4.3-9.6
		V1.2h-46.3v100.4c0,8.2,1.6,16,4.9,23.3c3.2,7.3,7.6,13.6,13.1,19c5.5,5.4,11.9,9.6,19.2,12.8c7.3,3.2,15,4.7,23.3,4.7
		c8.2,0,16-1.6,23.4-4.7c7.4-3.2,13.8-7.4,19.3-12.8c5.5-5.4,9.9-11.7,13.1-19c3.2-7.3,4.9-15,4.9-23.3V1.2h-46.3V99.4z"/>
</g>
</svg>
